<mxfile host="app.diagrams.net" modified="2022-02-22T09:56:50.593Z" agent="5.0 (Macintosh; Intel Mac OS X 10_15_7) AppleWebKit/537.36 (KHTML, like Gecko) Chrome/98.0.4758.102 Safari/537.36" etag="Wm9UhUYzP7Um4BDM5qg4" version="16.6.1" type="github">
  <diagram id="IemuaXq5Jafa3FOG4-sM" name="Page-1">
    <mxGraphModel dx="2598" dy="756" grid="1" gridSize="10" guides="1" tooltips="1" connect="1" arrows="1" fold="1" page="1" pageScale="1" pageWidth="1300" pageHeight="700" math="0" shadow="0">
      <root>
        <mxCell id="0" />
        <mxCell id="1" parent="0" />
        <mxCell id="_qIB2CW_H26AFUyjVN2s-4" value="front" style="swimlane;" parent="1" vertex="1">
          <mxGeometry x="-1075" y="40" width="205" height="470" as="geometry" />
        </mxCell>
        <mxCell id="_qIB2CW_H26AFUyjVN2s-11" value="main page" style="rounded=0;whiteSpace=wrap;html=1;" parent="_qIB2CW_H26AFUyjVN2s-4" vertex="1">
          <mxGeometry x="40" y="80" width="120" height="60" as="geometry" />
        </mxCell>
        <mxCell id="_qIB2CW_H26AFUyjVN2s-35" value="main page&amp;nbsp;" style="rounded=0;whiteSpace=wrap;html=1;" parent="_qIB2CW_H26AFUyjVN2s-4" vertex="1">
          <mxGeometry x="40" y="175" width="120" height="60" as="geometry" />
        </mxCell>
        <mxCell id="K__ir7B1sM-ubZqT1ZGn-10" value="user info page" style="rounded=0;whiteSpace=wrap;html=1;" parent="_qIB2CW_H26AFUyjVN2s-4" vertex="1">
          <mxGeometry x="42.5" y="380" width="120" height="60" as="geometry" />
        </mxCell>
        <mxCell id="_qIB2CW_H26AFUyjVN2s-6" value="http_proxy" style="swimlane;" parent="1" vertex="1">
          <mxGeometry x="-870" y="40" width="205" height="470" as="geometry" />
        </mxCell>
        <mxCell id="_qIB2CW_H26AFUyjVN2s-12" value="/login" style="rounded=0;whiteSpace=wrap;html=1;" parent="_qIB2CW_H26AFUyjVN2s-6" vertex="1">
          <mxGeometry x="50" y="80" width="120" height="60" as="geometry" />
        </mxCell>
        <mxCell id="_qIB2CW_H26AFUyjVN2s-7" value="tcp server" style="swimlane;" parent="1" vertex="1">
          <mxGeometry x="-665" y="40" width="205" height="470" as="geometry" />
        </mxCell>
        <mxCell id="K__ir7B1sM-ubZqT1ZGn-4" style="edgeStyle=orthogonalEdgeStyle;rounded=0;orthogonalLoop=1;jettySize=auto;html=1;exitX=0.5;exitY=1;exitDx=0;exitDy=0;entryX=0.5;entryY=0;entryDx=0;entryDy=0;startArrow=none;startFill=0;" parent="_qIB2CW_H26AFUyjVN2s-7" source="_qIB2CW_H26AFUyjVN2s-14" target="K__ir7B1sM-ubZqT1ZGn-3" edge="1">
          <mxGeometry relative="1" as="geometry" />
        </mxCell>
        <mxCell id="_qIB2CW_H26AFUyjVN2s-14" value="login handler" style="rounded=0;whiteSpace=wrap;html=1;" parent="_qIB2CW_H26AFUyjVN2s-7" vertex="1">
          <mxGeometry x="45.72000000000003" y="80" width="120" height="60" as="geometry" />
        </mxCell>
        <mxCell id="_qIB2CW_H26AFUyjVN2s-29" value="generate token" style="rounded=0;whiteSpace=wrap;html=1;" parent="_qIB2CW_H26AFUyjVN2s-7" vertex="1">
          <mxGeometry x="44.47000000000003" y="280" width="122.5" height="60" as="geometry" />
        </mxCell>
        <mxCell id="K__ir7B1sM-ubZqT1ZGn-5" value="Yes" style="edgeStyle=orthogonalEdgeStyle;rounded=0;orthogonalLoop=1;jettySize=auto;html=1;exitX=0.5;exitY=1;exitDx=0;exitDy=0;entryX=0.5;entryY=0;entryDx=0;entryDy=0;startArrow=none;startFill=0;" parent="_qIB2CW_H26AFUyjVN2s-7" source="K__ir7B1sM-ubZqT1ZGn-3" target="_qIB2CW_H26AFUyjVN2s-29" edge="1">
          <mxGeometry relative="1" as="geometry" />
        </mxCell>
        <mxCell id="K__ir7B1sM-ubZqT1ZGn-3" value="password &lt;br&gt;check ok?" style="rhombus;whiteSpace=wrap;html=1;" parent="_qIB2CW_H26AFUyjVN2s-7" vertex="1">
          <mxGeometry x="59.47" y="170" width="92.5" height="70" as="geometry" />
        </mxCell>
        <mxCell id="_qIB2CW_H26AFUyjVN2s-8" value="redis" style="swimlane;" parent="1" vertex="1">
          <mxGeometry x="-460" y="40" width="205" height="470" as="geometry" />
        </mxCell>
        <mxCell id="_qIB2CW_H26AFUyjVN2s-32" value="save token&amp;nbsp;&lt;br&gt;expire" style="rounded=0;whiteSpace=wrap;html=1;" parent="_qIB2CW_H26AFUyjVN2s-8" vertex="1">
          <mxGeometry x="41.25" y="330" width="122.5" height="60" as="geometry" />
        </mxCell>
        <mxCell id="_qIB2CW_H26AFUyjVN2s-28" value="get user_info?" style="rhombus;whiteSpace=wrap;html=1;" parent="_qIB2CW_H26AFUyjVN2s-8" vertex="1">
          <mxGeometry x="50" y="70" width="92.5" height="80" as="geometry" />
        </mxCell>
        <mxCell id="_qIB2CW_H26AFUyjVN2s-9" value="mysql" style="swimlane;" parent="1" vertex="1">
          <mxGeometry x="-255" y="40" width="205" height="470" as="geometry" />
        </mxCell>
        <mxCell id="1giJD2ms7WDqDUb7qpVv-4" value="search user_name?" style="rhombus;whiteSpace=wrap;html=1;" parent="_qIB2CW_H26AFUyjVN2s-9" vertex="1">
          <mxGeometry x="45" y="70" width="92.5" height="80" as="geometry" />
        </mxCell>
        <mxCell id="_qIB2CW_H26AFUyjVN2s-13" style="edgeStyle=orthogonalEdgeStyle;rounded=0;orthogonalLoop=1;jettySize=auto;html=1;exitX=1;exitY=0.5;exitDx=0;exitDy=0;" parent="1" source="_qIB2CW_H26AFUyjVN2s-11" target="_qIB2CW_H26AFUyjVN2s-12" edge="1">
          <mxGeometry relative="1" as="geometry" />
        </mxCell>
        <mxCell id="_qIB2CW_H26AFUyjVN2s-16" value="user_name&lt;br&gt;+ password" style="edgeLabel;html=1;align=center;verticalAlign=middle;resizable=0;points=[];" parent="_qIB2CW_H26AFUyjVN2s-13" vertex="1" connectable="0">
          <mxGeometry x="-0.4057" y="-1" relative="1" as="geometry">
            <mxPoint x="19" y="-1" as="offset" />
          </mxGeometry>
        </mxCell>
        <mxCell id="_qIB2CW_H26AFUyjVN2s-17" style="edgeStyle=orthogonalEdgeStyle;rounded=0;orthogonalLoop=1;jettySize=auto;html=1;exitX=1;exitY=0.5;exitDx=0;exitDy=0;entryX=0;entryY=0.5;entryDx=0;entryDy=0;" parent="1" source="_qIB2CW_H26AFUyjVN2s-12" target="_qIB2CW_H26AFUyjVN2s-14" edge="1">
          <mxGeometry relative="1" as="geometry" />
        </mxCell>
        <mxCell id="K__ir7B1sM-ubZqT1ZGn-1" style="edgeStyle=orthogonalEdgeStyle;rounded=0;orthogonalLoop=1;jettySize=auto;html=1;exitX=1;exitY=0.5;exitDx=0;exitDy=0;entryX=0;entryY=0.5;entryDx=0;entryDy=0;startArrow=classic;startFill=1;" parent="1" source="_qIB2CW_H26AFUyjVN2s-14" target="_qIB2CW_H26AFUyjVN2s-28" edge="1">
          <mxGeometry relative="1" as="geometry" />
        </mxCell>
        <mxCell id="K__ir7B1sM-ubZqT1ZGn-7" style="edgeStyle=orthogonalEdgeStyle;rounded=0;orthogonalLoop=1;jettySize=auto;html=1;exitX=0;exitY=0.5;exitDx=0;exitDy=0;entryX=1;entryY=0.5;entryDx=0;entryDy=0;startArrow=none;startFill=0;" parent="1" source="K__ir7B1sM-ubZqT1ZGn-3" target="_qIB2CW_H26AFUyjVN2s-35" edge="1">
          <mxGeometry relative="1" as="geometry" />
        </mxCell>
        <mxCell id="K__ir7B1sM-ubZqT1ZGn-8" value="auth failed" style="edgeLabel;html=1;align=center;verticalAlign=middle;resizable=0;points=[];" parent="K__ir7B1sM-ubZqT1ZGn-7" vertex="1" connectable="0">
          <mxGeometry x="-0.047" relative="1" as="geometry">
            <mxPoint as="offset" />
          </mxGeometry>
        </mxCell>
        <mxCell id="K__ir7B1sM-ubZqT1ZGn-11" style="edgeStyle=orthogonalEdgeStyle;rounded=0;orthogonalLoop=1;jettySize=auto;html=1;exitX=0.5;exitY=1;exitDx=0;exitDy=0;entryX=1;entryY=0.5;entryDx=0;entryDy=0;startArrow=none;startFill=0;" parent="1" source="_qIB2CW_H26AFUyjVN2s-32" target="K__ir7B1sM-ubZqT1ZGn-10" edge="1">
          <mxGeometry relative="1" as="geometry" />
        </mxCell>
        <mxCell id="K__ir7B1sM-ubZqT1ZGn-21" style="edgeStyle=orthogonalEdgeStyle;rounded=0;orthogonalLoop=1;jettySize=auto;html=1;exitX=1;exitY=0.5;exitDx=0;exitDy=0;entryX=0.5;entryY=0;entryDx=0;entryDy=0;startArrow=none;startFill=0;endArrow=classic;endFill=1;" parent="1" source="_qIB2CW_H26AFUyjVN2s-29" target="_qIB2CW_H26AFUyjVN2s-32" edge="1">
          <mxGeometry relative="1" as="geometry" />
        </mxCell>
        <mxCell id="1giJD2ms7WDqDUb7qpVv-5" style="edgeStyle=orthogonalEdgeStyle;rounded=0;orthogonalLoop=1;jettySize=auto;html=1;exitX=1;exitY=0.5;exitDx=0;exitDy=0;" parent="1" source="_qIB2CW_H26AFUyjVN2s-28" target="1giJD2ms7WDqDUb7qpVv-4" edge="1">
          <mxGeometry relative="1" as="geometry" />
        </mxCell>
        <mxCell id="1giJD2ms7WDqDUb7qpVv-6" value="no" style="edgeLabel;html=1;align=center;verticalAlign=middle;resizable=0;points=[];" parent="1giJD2ms7WDqDUb7qpVv-5" vertex="1" connectable="0">
          <mxGeometry x="0.293" y="1" relative="1" as="geometry">
            <mxPoint x="-21" y="1" as="offset" />
          </mxGeometry>
        </mxCell>
        <mxCell id="1giJD2ms7WDqDUb7qpVv-7" style="edgeStyle=orthogonalEdgeStyle;rounded=0;orthogonalLoop=1;jettySize=auto;html=1;exitX=0.5;exitY=1;exitDx=0;exitDy=0;entryX=1;entryY=0.5;entryDx=0;entryDy=0;" parent="1" source="1giJD2ms7WDqDUb7qpVv-4" target="K__ir7B1sM-ubZqT1ZGn-3" edge="1">
          <mxGeometry relative="1" as="geometry" />
        </mxCell>
        <mxCell id="1giJD2ms7WDqDUb7qpVv-10" value="yes" style="edgeLabel;html=1;align=center;verticalAlign=middle;resizable=0;points=[];" parent="1giJD2ms7WDqDUb7qpVv-7" vertex="1" connectable="0">
          <mxGeometry x="-0.8838" y="1" relative="1" as="geometry">
            <mxPoint y="1" as="offset" />
          </mxGeometry>
        </mxCell>
        <mxCell id="1giJD2ms7WDqDUb7qpVv-9" style="edgeStyle=orthogonalEdgeStyle;rounded=0;orthogonalLoop=1;jettySize=auto;html=1;exitX=0.5;exitY=1;exitDx=0;exitDy=0;entryX=1;entryY=0.5;entryDx=0;entryDy=0;" parent="1" source="_qIB2CW_H26AFUyjVN2s-28" target="K__ir7B1sM-ubZqT1ZGn-3" edge="1">
          <mxGeometry relative="1" as="geometry" />
        </mxCell>
        <mxCell id="1giJD2ms7WDqDUb7qpVv-11" value="yes" style="edgeLabel;html=1;align=center;verticalAlign=middle;resizable=0;points=[];" parent="1giJD2ms7WDqDUb7qpVv-9" vertex="1" connectable="0">
          <mxGeometry x="-0.6427" y="-1" relative="1" as="geometry">
            <mxPoint y="-1" as="offset" />
          </mxGeometry>
        </mxCell>
      </root>
    </mxGraphModel>
  </diagram>
</mxfile>
